<?xml version="1.0" encoding="UTF-8" standalone="no"?>
<svg
   xmlns:dc="http://purl.org/dc/elements/1.1/"
   xmlns:cc="http://creativecommons.org/ns#"
   xmlns:rdf="http://www.w3.org/1999/02/22-rdf-syntax-ns#"
   xmlns:svg="http://www.w3.org/2000/svg"
   xmlns="http://www.w3.org/2000/svg"
   xmlns:sodipodi="http://sodipodi.sourceforge.net/DTD/sodipodi-0.dtd"
   xmlns:inkscape="http://www.inkscape.org/namespaces/inkscape"
   version="1.1"
   viewBox="0 0 1117.5028 151.30474"
   id="svg2"
   inkscape:version="0.91 r13725"
   sodipodi:docname="logo.svg"
   width="1117.5028"
   height="151.30473">
  <metadata
     id="metadata30">
    <rdf:RDF>
      <cc:Work
         rdf:about="">
        <dc:format>image/svg+xml</dc:format>
        <dc:type
           rdf:resource="http://purl.org/dc/dcmitype/StillImage" />
        <dc:title></dc:title>
      </cc:Work>
    </rdf:RDF>
  </metadata>
  <defs
     id="defs28" />
  <sodipodi:namedview
     pagecolor="#ffffff"
     bordercolor="#666666"
     borderopacity="1"
     objecttolerance="10"
     gridtolerance="10"
     guidetolerance="10"
     inkscape:pageopacity="0"
     inkscape:pageshadow="2"
     inkscape:window-width="1920"
     inkscape:window-height="1080"
     id="namedview26"
     showgrid="false"
     borderlayer="true"
     inkscape:showpageshadow="false"
     fit-margin-top="0"
     fit-margin-left="0"
     fit-margin-right="0"
     fit-margin-bottom="0"
     inkscape:zoom="0.48102037"
     inkscape:cx="64.95974"
     inkscape:cy="165.05134"
     inkscape:window-x="0"
     inkscape:window-y="0"
     inkscape:window-maximized="0"
     inkscape:current-layer="svg2" />
  <g
     transform="translate(-163.93874,-825.1433)"
     id="g4">
    <g
       id="g6"
       style="fill:#ff2a2a">
      <path
         style="color:#000000;text-indent:0;text-decoration:none;text-decoration-line:none;text-transform:none;block-progression:tb"
         d="m 236.88,878.37 -10.555,7.3754 -1.6369,16.425 4.6473,8.2221 19.85,5.5128 6.7734,-15.259 c 1.2408,-2.807 0.38264,-6.3936 -1.9944,-8.335 l -17.084,-13.942 z"
         id="path8"
         inkscape:connector-curvature="0" />
      <path
         style="color:#000000;text-indent:0;text-decoration:none;text-decoration-line:none;text-transform:none;block-progression:tb"
         d="m 240.21,846.01 c -0.98948,-0.0481 -2.0321,0.21869 -2.8787,0.73378 -0.005,0.003 -0.0141,-0.003 -0.0188,0 l -37.517,23.086 c -1.073,0.66115 -1.901,1.8099 -2.2202,3.0292 l -12.869,49.163 a 2.0202,2.0202 0 0 1 -0.43273,0.82786 l -19.078,21.524 c -0.70826,0.80101 -1.1559,1.8694 -1.2418,2.9351 -0.0821,1.0189 0.17515,2.0898 0.69616,2.9728 l 21.016,23.556 a 2.0202,2.0202 0 0 1 0.20696,0.26341 c 0.81247,1.2868 2.34,2.2125 3.857,2.333 1.5171,0.12042 3.1903,-0.55089 4.1957,-1.6933 a 2.0202,2.0202 0 0 1 0.1317,-0.11289 l 18.363,-17.592 a 2.0202,2.0202 0 0 1 0.84667,-0.48919 l 42.051,-11.91 c 0.006,-0.002 0.0133,0.002 0.0187,0 0.35703,-0.10402 0.70942,-0.25301 1.0348,-0.43274 l 35.071,-19.191 c 1.1869,-0.65116 2.1329,-1.8673 2.4648,-3.1797 0.33185,-1.3125 0.0951,-2.8517 -0.63971,-3.9888 l -6.55,-10.13 c -0.66937,-1.0336 -1.7802,-1.8382 -2.9728,-2.1449 -1.1925,-0.30667 -2.5651,-0.13091 -3.6501,0.45156 l -27.093,14.544 a 2.0202,2.0202 0 0 1 -1.4864,0.16934 l -24.045,-6.6793 a 2.0202,2.0202 0 0 1 -1.223,-0.94075 l -5.3811,-9.558 a 2.0202,2.0202 0 0 1 -0.24459,-1.1853 l 1.7874,-17.968 a 2.0202,2.0202 0 0 1 0.86549,-1.4488 l 16.858,-11.778 a 2.0202,2.0202 0 0 1 1.317,-0.35748 l 42.164,3.4431 c 1.1419,0.0924 2.3538,-0.24673 3.2926,-0.90312 0.93888,-0.65644 1.6703,-1.6805 1.9756,-2.7846 l 3.5748,-13.001 c 0.37655,-1.3714 0.10311,-3.0006 -0.69615,-4.1769 -0.79603,-1.1716 -2.2045,-2.0224 -3.6125,-2.1825 l -0.0188,0 -47.564,-5.2117 0,0.0188 c -0.10036,-0.009 -0.19677,-0.0158 -0.30104,-0.0188 a 2.0202,2.0202 0 0 1 -0.0376,0 z"
         id="path10"
         inkscape:connector-curvature="0" />
      <path
         d="m 333.79,956.66 q -2.5762,0 -4.3389,-1.8983 -1.7627,-1.7627 -1.7627,-4.3389 l 0,-89.354 q 0,-2.5762 1.7627,-4.3389 1.7627,-1.7627 4.3389,-1.7627 2.5762,0 4.3389,1.7627 1.8983,1.7627 1.8983,4.3389 l 0,3.5253 q 9.898,-10.305 23.186,-10.305 8.4066,0 15.864,4.3389 7.593,4.2033 12.203,12.474 4.7456,8.1354 4.7456,19.118 0,10.9826 -4.7456,19.254 -4.61,8.1354 -12.203,12.474 -7.4574,4.2033 -15.864,4.2033 -13.288,0 -23.186,-10.305 l 0,34.575 q 0,2.7118 -1.7627,4.4745 -1.7627,1.7627 -4.4745,1.7627 z m 27.66,-42.033 q 10.034,0 16.135,-6.3727 6.1015,-6.3727 6.1015,-18.033 0,-11.661 -6.1015,-18.033 -6.1015,-6.3727 -16.135,-6.3727 -6.2371,0 -11.796,2.8474 -5.4236,2.7118 -9.6269,7.3218 l 0,28.474 q 4.2033,4.61 9.6269,7.4574 5.5592,2.7118 11.796,2.7118 z"
         id="path12"
         inkscape:connector-curvature="0" />
      <path
         d="m 419.05,841.55 q -2.8474,0 -4.8812,-2.0338 -2.0338,-2.0338 -2.0338,-4.8812 l 0,-0.54236 q 0,-2.8474 2.0338,-4.8812 2.0338,-2.0338 4.8812,-2.0338 l 0.81354,0 q 2.8474,0 4.8812,2.0338 2.0338,2.0338 2.0338,4.8812 l 0,0.54236 q 0,2.8474 -2.0338,4.8812 -2.0338,2.0338 -4.8812,2.0338 l -0.81354,0 z m 0.27118,83.93 q -2.5762,0 -4.3389,-1.7627 -1.7627,-1.7627 -1.7627,-4.3389 l 0,-58.168 q 0,-2.5762 1.7627,-4.3389 1.7627,-1.8982 4.3389,-1.8982 2.7118,0 4.4745,1.7627 1.7627,1.7627 1.7627,4.4745 l 0,58.168 q 0,2.5762 -1.8983,4.3389 -1.7627,1.7627 -4.3389,1.7627 z"
         id="path14"
         inkscape:connector-curvature="0" />
      <path
         d="m 452.96,925.48 q -2.5762,0 -4.3389,-1.7627 -1.7627,-1.7627 -1.7627,-4.3389 l 0,-87.998 q 0,-2.5762 1.7627,-4.3389 1.7627,-1.8982 4.3389,-1.8982 2.5762,0 4.3389,1.8982 1.8983,1.7627 1.8983,4.3389 l 0,55.456 32.27,-29.83 q 2.0338,-1.7627 4.0677,-1.7627 3.1186,0 4.4745,1.7627 1.4915,1.7627 1.4915,4.2033 0,2.305 -2.305,4.6101 l -19.525,17.491 24.542,32.542 q 1.3559,1.7627 1.3559,3.6609 0,2.7118 -1.7627,4.3389 -1.7627,1.6271 -4.4745,1.6271 -1.3559,0 -2.7118,-0.67794 -1.3559,-0.67795 -2.305,-1.8983 l -23.321,-31.728 -11.796,10.712 0,17.491 q 0,2.5762 -1.8983,4.3389 -1.7627,1.7627 -4.3389,1.7627 z"
         id="path16"
         inkscape:connector-curvature="0" />
      <path
         d="m 544.33,926.16 q -7.4574,0 -13.017,-3.5253 -5.4236,-3.5253 -8.4066,-9.6269 -2.8474,-6.1015 -2.8474,-13.423 l 0,-38.508 q 0,-2.5762 1.7627,-4.3389 1.8983,-1.7627 4.4745,-1.7627 2.5762,0 4.3389,1.7627 1.7627,1.7627 1.7627,4.3389 l 0,37.152 q 0,16.542 14.915,16.542 6.7795,0 12.067,-3.5253 5.4236,-3.5253 10.169,-9.4913 l 0,-40.677 q 0,-2.5762 1.7627,-4.3389 1.8982,-1.7627 4.4745,-1.7627 2.5762,0 4.3389,1.7627 1.7627,1.7627 1.7627,4.3389 l 0,58.168 q 0,2.5762 -1.7627,4.4745 -1.7627,1.7627 -4.3389,1.7627 -2.5762,0 -4.4745,-1.7627 -1.7627,-1.8983 -1.7627,-4.4745 l 0,-5.5592 q -5.1524,5.6948 -11.118,9.0845 -5.966,3.3897 -14.101,3.3897 z"
         id="path18"
         inkscape:connector-curvature="0" />
    </g>
    <text
       style="font-size:40px;line-height:125%;font-family:'Varela Round';letter-spacing:0px;word-spacing:0px;fill:#000000"
       xml:space="preserve"
       font-size="40px"
       y="605.91644"
       x="-74.99691"
       line-height="125%"
       id="text20"
       sodipodi:linespacing="125%"><tspan
         x="-74.99691"
         y="605.91644"
         id="tspan22" /></text>
  </g>
  <g
     style="font-style:normal;font-variant:normal;font-weight:normal;font-stretch:normal;font-size:128.56768799px;line-height:125%;font-family:'Varela Round';-inkscape-font-specification:'Varela Round';text-align:start;letter-spacing:0px;word-spacing:0px;text-anchor:start;fill:#666666;fill-opacity:1;stroke:none;stroke-width:1px;stroke-linecap:butt;stroke-linejoin:miter;stroke-opacity:1"
     id="text4158">
    <path
       d="m 470.36137,99.22442 q -2.44279,0 -4.11417,-1.67138 -1.67138,-1.67138 -1.67138,-4.114166 l 0,-55.155539 q 0,-2.442786 1.67138,-4.114166 1.67138,-1.799947 4.11417,-1.799947 2.44279,0 4.11417,1.799947 1.79994,1.67138 1.79994,4.114166 l 0,5.271276 q 3.5999,-5.142708 8.61404,-8.485468 5.14271,-3.34276 13.24247,-3.34276 7.19979,0 12.3425,3.857031 5.14271,3.857031 7.32836,9.385441 7.97119,-13.242472 23.65645,-13.242472 7.19979,0 11.9568,3.599896 4.88557,3.599895 7.19979,9.256873 2.31421,5.656978 2.31421,11.828227 l 0,37.027495 q 0,2.442786 -1.79994,4.114166 -1.67138,1.67138 -4.11417,1.67138 -2.44279,0 -4.11417,-1.67138 -1.67138,-1.67138 -1.67138,-4.114166 l 0,-34.713276 q 0,-8.3569 -2.95705,-12.213931 -2.95706,-3.985598 -10.15685,-3.985598 -6.55695,0 -10.92825,3.471328 -4.24274,3.34276 -7.5855,8.87117 l 0,38.570307 q 0,2.442786 -1.79994,4.114166 -1.67138,1.67138 -4.11417,1.67138 -2.44279,0 -4.11417,-1.67138 -1.67138,-1.67138 -1.67138,-4.114166 l 0,-34.713276 q 0,-8.3569 -2.95705,-12.213931 -2.95706,-3.985598 -10.15685,-3.985598 -6.55695,0 -10.92825,3.471328 -4.24274,3.34276 -7.5855,8.87117 l 0,38.570307 q 0,2.442786 -1.79994,4.114166 -1.67138,1.67138 -4.11417,1.67138 z"
       style="fill:#666666"
       id="path4163" />
    <path
       d="m 611.52467,99.867258 q -9.89971,0 -17.35664,-4.242734 -7.45692,-4.242733 -11.57109,-11.956795 -3.9856,-7.842629 -3.9856,-17.870908 0,-10.02828 3.9856,-17.742341 4.11417,-7.842629 11.57109,-12.085363 7.45693,-4.242734 17.35664,-4.242734 9.77115,0 17.22807,4.242734 7.45693,4.242734 11.57109,12.085363 4.11417,7.714061 4.11417,17.742341 0,10.028279 -4.11417,17.870908 -4.11416,7.714062 -11.57109,11.956795 -7.45692,4.242734 -17.22807,4.242734 z m 0,-10.671118 q 5.27128,0 10.02828,-2.442786 4.88557,-2.442786 7.9712,-7.714061 3.21419,-5.271276 3.21419,-13.37104 0,-7.971197 -3.21419,-13.242472 -3.08563,-5.271275 -7.9712,-7.585493 -4.757,-2.442787 -10.02828,-2.442787 -5.39984,0 -10.28541,2.442787 -4.75701,2.314218 -7.84263,7.585493 -3.08563,5.271275 -3.08563,13.242472 0,8.099764 3.08563,13.37104 3.08562,5.271275 7.84263,7.714061 4.88557,2.442786 10.28541,2.442786 z"
       style="fill:#666666"
       id="path4165" />
    <path
       d="m 666.47731,99.22442 q -2.44279,0 -4.11417,-1.67138 -1.67138,-1.67138 -1.67138,-4.114166 l 0,-55.155539 q 0,-2.442786 1.67138,-4.114166 1.67138,-1.799947 4.11417,-1.799947 2.44278,0 4.11416,1.799947 1.79995,1.67138 1.79995,4.114166 l 0,5.271276 q 4.88557,-5.399843 10.54255,-8.614035 5.65698,-3.214193 13.37104,-3.214193 7.07122,0 12.21393,3.34276 5.27127,3.34276 7.9712,9.128306 2.82849,5.785546 2.82849,12.728201 l 0,36.513224 q 0,2.442786 -1.79995,4.114166 -1.67138,1.67138 -4.11417,1.67138 -2.44278,0 -4.11416,-1.67138 -1.67138,-1.67138 -1.67138,-4.114166 l 0,-35.227547 q 0,-15.685258 -14.14245,-15.685258 -6.42838,0 -11.57109,3.34276 -5.01414,3.34276 -9.51401,8.999738 l 0,38.570307 q 0,2.442786 -1.79995,4.114166 -1.67138,1.67138 -4.11416,1.67138 z"
       style="fill:#666666"
       id="path4167" />
    <path
       d="m 744.56612,19.641021 q -2.69992,0 -4.62844,-1.928516 -1.92851,-1.928515 -1.92851,-4.628436 l 0,-0.514271 q 0,-2.6999216 1.92851,-4.6284369 1.92852,-1.9285153 4.62844,-1.9285153 l 0.7714,0 q 2.69992,0 4.62844,1.9285153 1.92852,1.9285153 1.92852,4.6284369 l 0,0.514271 q 0,2.699921 -1.92852,4.628436 -1.92852,1.928516 -4.62844,1.928516 l -0.7714,0 z m 0.25713,79.583399 q -2.44278,0 -4.11416,-1.67138 -1.67138,-1.67138 -1.67138,-4.114166 l 0,-55.155539 q 0,-2.442786 1.67138,-4.114166 1.67138,-1.799947 4.11416,-1.799947 2.57136,0 4.24274,1.67138 1.67138,1.67138 1.67138,4.242733 l 0,55.155539 q 0,2.442786 -1.79995,4.114166 -1.67138,1.67138 -4.11417,1.67138 z"
       style="fill:#666666"
       id="path4169" />
    <path
       d="m 793.55643,99.867258 q -18.77088,0 -18.77088,-16.970935 l 0,-39.855983 -9.12831,0 q -1.02854,0 -1.79995,-0.642839 -0.64284,-0.771406 -0.64284,-1.799947 0,-1.285677 1.15711,-2.185651 l 17.48521,-17.099502 q 1.15711,-1.15711 2.18565,-1.15711 1.02854,0 1.67138,0.771407 0.77141,0.771406 0.77141,1.799947 l 0,10.285415 14.52814,0 q 2.18565,0 3.5999,1.414245 1.41424,1.414244 1.41424,3.599895 0,2.057083 -1.41424,3.599895 -1.41425,1.414245 -3.5999,1.414245 l -14.52814,0 0,38.827442 q 0,5.01414 2.31421,6.428384 2.44279,1.285677 6.04268,1.285677 2.57136,0 5.14271,-0.771406 0.51427,-0.128568 1.02854,-0.257136 0.64284,-0.128567 1.54282,-0.128567 1.79994,0 3.21419,1.414244 1.41424,1.285677 1.41424,3.214193 0,2.957056 -2.95705,4.499869 -5.01414,2.314218 -10.67112,2.314218 z"
       style="fill:#666666"
       id="path4171" />
    <path
       d="m 848.06914,99.867258 q -9.89972,0 -17.35664,-4.242734 -7.45693,-4.242733 -11.57109,-11.956795 -3.9856,-7.842629 -3.9856,-17.870908 0,-10.02828 3.9856,-17.742341 4.11416,-7.842629 11.57109,-12.085363 7.45692,-4.242734 17.35664,-4.242734 9.77114,0 17.22807,4.242734 7.45692,4.242734 11.57109,12.085363 4.11416,7.714061 4.11416,17.742341 0,10.028279 -4.11416,17.870908 -4.11417,7.714062 -11.57109,11.956795 -7.45693,4.242734 -17.22807,4.242734 z m 0,-10.671118 q 5.27127,0 10.02827,-2.442786 4.88558,-2.442786 7.9712,-7.714061 3.21419,-5.271276 3.21419,-13.37104 0,-7.971197 -3.21419,-13.242472 -3.08562,-5.271275 -7.9712,-7.585493 -4.757,-2.442787 -10.02827,-2.442787 -5.39985,0 -10.28542,2.442787 -4.757,2.314218 -7.84263,7.585493 -3.08562,5.271275 -3.08562,13.242472 0,8.099764 3.08562,13.37104 3.08563,5.271275 7.84263,7.714061 4.88557,2.442786 10.28542,2.442786 z"
       style="fill:#666666"
       id="path4173" />
    <path
       d="m 903.02177,99.22442 q -2.44279,0 -4.11417,-1.67138 -1.67138,-1.67138 -1.67138,-4.114166 l 0,-55.155539 q 0,-2.442786 1.67138,-4.114166 1.67138,-1.799947 4.11417,-1.799947 2.44279,0 4.11417,1.799947 1.79994,1.67138 1.79994,4.114166 l 0,5.528411 q 8.99974,-12.085363 20.18513,-12.085363 l 0.64284,0 q 2.44278,0 3.9856,1.67138 1.67138,1.67138 1.67138,4.114166 0,2.442786 -1.67138,3.985599 -1.67138,1.542812 -4.24274,1.542812 l -0.64284,0 q -6.17124,0 -11.31395,3.085624 -5.14271,2.957057 -8.61404,8.228332 l 0,39.084578 q 0,2.442786 -1.79994,4.114166 -1.67138,1.67138 -4.11417,1.67138 z"
       style="fill:#666666"
       id="path4175" />
    <path
       d="m 951.98195,19.641021 q -2.69992,0 -4.62844,-1.928516 Q 945.425,15.78399 945.425,13.084069 l 0,-0.514271 q 0,-2.6999216 1.92851,-4.6284369 1.92852,-1.9285153 4.62844,-1.9285153 l 0.77141,0 q 2.69992,0 4.62843,1.9285153 1.92852,1.9285153 1.92852,4.6284369 l 0,0.514271 q 0,2.699921 -1.92852,4.628436 -1.92851,1.928516 -4.62843,1.928516 l -0.77141,0 z m 0.25714,79.583399 q -2.44279,0 -4.11417,-1.67138 -1.67138,-1.67138 -1.67138,-4.114166 l 0,-55.155539 q 0,-2.442786 1.67138,-4.114166 1.67138,-1.799947 4.11417,-1.799947 2.57135,0 4.24273,1.67138 1.67138,1.67138 1.67138,4.242733 l 0,55.155539 q 0,2.442786 -1.79995,4.114166 -1.67138,1.67138 -4.11416,1.67138 z"
       style="fill:#666666"
       id="path4177" />
    <path
       d="m 984.12992,99.22442 q -2.44278,0 -4.11416,-1.67138 -1.67138,-1.67138 -1.67138,-4.114166 l 0,-55.155539 q 0,-2.442786 1.67138,-4.114166 1.67138,-1.799947 4.11416,-1.799947 2.44279,0 4.11417,1.799947 1.79995,1.67138 1.79995,4.114166 l 0,5.271276 q 4.88557,-5.399843 10.54256,-8.614035 5.657,-3.214193 13.371,-3.214193 7.0713,0 12.214,3.34276 5.2712,3.34276 7.9712,9.128306 2.8284,5.785546 2.8284,12.728201 l 0,36.513224 q 0,2.442786 -1.7999,4.114166 -1.6714,1.67138 -4.1142,1.67138 -2.4428,0 -4.1141,-1.67138 -1.6714,-1.67138 -1.6714,-4.114166 l 0,-35.227547 q 0,-15.685258 -14.1425,-15.685258 -6.4283,0 -11.57105,3.34276 -5.01414,3.34276 -9.51401,8.999738 l 0,38.570307 q 0,2.442786 -1.79995,4.114166 -1.67138,1.67138 -4.11417,1.67138 z"
       style="fill:#666666"
       id="path4179" />
    <path
       d="m 1087.2894,129.43783 q -7.457,0 -15.0424,-1.92852 -7.5855,-1.92851 -12.4711,-4.757 -2.3142,-1.41425 -2.3142,-4.49987 0,-2.05709 1.4142,-3.72847 1.5428,-1.54281 3.7285,-1.54281 1.0285,0 2.3142,0.51427 9.7711,4.88558 21.2137,4.88558 19.6708,0 19.6708,-20.956538 l 0,-8.614035 q -9.1283,9.771144 -21.9851,9.771144 -7.5854,0 -14.7852,-3.728463 -7.0713,-3.85703 -11.6997,-11.313956 -4.6284,-7.585494 -4.6284,-18.38518 0,-10.799686 4.6284,-18.256611 4.6284,-7.585494 11.6997,-11.313957 7.1998,-3.857031 14.7852,-3.857031 12.8568,0 21.9851,9.771145 l 0,-3.214193 q 0,-2.442786 1.6714,-4.114166 1.6714,-1.799947 4.1142,-1.799947 2.4428,0 4.1141,1.799947 1.8,1.67138 1.8,4.114166 l 0,57.469757 q 0,16.199528 -7.8426,24.942128 -7.8427,8.74261 -22.3708,8.74261 z m -1.0286,-41.527367 q 6.0427,0 10.6712,-2.571354 4.6284,-2.571354 8.8711,-6.942655 l 0,-26.484944 q -4.2427,-4.371301 -8.8711,-6.942655 -4.6285,-2.571354 -10.6712,-2.571354 -9.6425,0 -15.8138,5.914114 -6.0427,5.785546 -6.0427,16.842367 0,11.056821 6.0427,16.970935 6.1713,5.785546 15.8138,5.785546 z"
       style="fill:#666666"
       id="path4181" />
  </g>
</svg>
